#Comment line ignore any data following # character 
#Hierarchical Translation and Rotation (.htr) file 
[Header]	
#Header keywords are followed by a single value 
FileType HTR		#Single word string
DataType HTRS		#Translation followed by rotation and scale data
FileVersion 1		#integer
NumSegments 84		#integer
NumFrames 2		#integer
DataFrameRate 30		#integer, data frame rate in this file
EulerRotationOrder ZYX
CalibrationUnits mm
RotationUnits Degrees
GlobalAxisofGravity Y
BoneLengthAxis Y
ScaleFactor 1.00
[SegmentNames&Hierarchy]
#CHILD	PARENT
MASTER GLOBAL
root MASTER
chest root
L_mid_tent01 root
R_mid_tent01 root
spine01 root
Bip01_Neck chest
L_humerus chest
R_humerus chest
weapon_bone chest
Bip01_Head Bip01_Neck
eye_left_bone Bip01_Head
eye_right_bone Bip01_Head
L_forearm L_humerus
L_front_hand L_forearm
L_weapon_bone L_forearm
L_front_hand01_01 L_front_hand
L_front_hand02_01 L_front_hand
L_front_hand03_01 L_front_hand
L_front_hand01_02 L_front_hand01_01
L_front_hand02_02 L_front_hand02_01
L_front_hand03_02 L_front_hand03_01
R_forearm R_humerus
R_front_hand R_forearm
R_weapon_bone R_forearm
R_front_hand01_01 R_front_hand
R_front_hand02_01 R_front_hand
R_front_hand03_01 R_front_hand
R_front_hand01_02 R_front_hand01_01
R_front_hand02_02 R_front_hand02_01
R_front_hand03_02 R_front_hand03_01
null_rope01_connect L_mid_tent01
Rope1_Seg01 null_rope01_connect
Rope1_Seg02 Rope1_Seg01
Rope1_Seg03 Rope1_Seg02
Rope1_Seg04 Rope1_Seg03
Rope1_Seg05 Rope1_Seg04
Rope1_Seg06 Rope1_Seg05
Rope1_Seg07 Rope1_Seg06
Rope1_Seg09 Rope1_Seg07
L_mid_hand01 Rope1_Seg09
L_mid_hand02 Rope1_Seg09
L_mid_hand03 Rope1_Seg09
null_rope02_connect R_mid_tent01
Rope2_Seg01 null_rope02_connect
Rope2_Seg02 Rope2_Seg01
Rope2_Seg03 Rope2_Seg02
Rope2_Seg04 Rope2_Seg03
Rope2_Seg05 Rope2_Seg04
Rope2_Seg06 Rope2_Seg05
Rope2_Seg07 Rope2_Seg06
Rope2_Seg09 Rope2_Seg07
R_mid_hand01 Rope2_Seg09
R_mid_hand02 Rope2_Seg09
R_mid_hand03 Rope2_Seg09
spine02 spine01
spine03 spine02
pelvis spine03
null_rope03_connect pelvis
null_rope04_connect pelvis
Rope3_Seg01 null_rope03_connect
Rope3_Seg02 Rope3_Seg01
Rope3_Seg03 Rope3_Seg02
Rope3_Seg04 Rope3_Seg03
Rope3_Seg05 Rope3_Seg04
Rope3_Seg06 Rope3_Seg05
Rope3_Seg07 Rope3_Seg06
Rope3_Seg08 Rope3_Seg07
Rope3_Seg09 Rope3_Seg08
R_rear_hand01 Rope3_Seg09
R_rear_hand02 Rope3_Seg09
R_rear_hand03 Rope3_Seg09
Rope4_Seg01 null_rope04_connect
Rope4_Seg02 Rope4_Seg01
Rope4_Seg03 Rope4_Seg02
Rope4_Seg04 Rope4_Seg03
Rope4_Seg05 Rope4_Seg04
Rope4_Seg06 Rope4_Seg05
Rope4_Seg07 Rope4_Seg06
Rope4_Seg08 Rope4_Seg07
Rope4_Seg09 Rope4_Seg08
L_rear_hand01 Rope4_Seg09
L_rear_hand02 Rope4_Seg09
L_rear_hand03 Rope4_Seg09
[BasePosition]
#SegmentName Tx, Ty, Tz, Rx, Ry, Rz, BoneLength
MASTER 0.000000 0.000000 0.000000 -90.000000 0.000000 0.000000 10.000000 
root 0.000000 0.000000 0.000000 0.000000 0.000000 0.000000 10.000000 
chest 0.000000 0.000000 0.000000 0.000000 0.000000 0.000000 10.000000 
L_mid_tent01 0.000000 0.000000 0.000000 0.000000 0.000000 0.000000 10.000000 
R_mid_tent01 0.000000 0.000000 0.000000 0.000000 0.000000 0.000000 10.000000 
spine01 0.000000 0.000000 0.000000 0.000000 0.000000 0.000000 10.000000 
Bip01_Neck 0.000000 0.000000 0.000000 0.000000 0.000000 0.000000 10.000000 
L_humerus 0.000000 0.000000 0.000000 0.000000 0.000000 0.000000 10.000000 
R_humerus 0.000000 0.000000 0.000000 0.000000 0.000000 0.000000 10.000000 
weapon_bone 0.000000 0.000000 0.000000 0.000000 0.000000 0.000000 10.000000 
Bip01_Head 0.000000 0.000000 0.000000 0.000000 0.000000 0.000000 10.000000 
eye_left_bone 0.000000 0.000000 0.000000 0.000000 0.000000 0.000000 10.000000 
eye_right_bone 0.000000 0.000000 0.000000 0.000000 0.000000 0.000000 10.000000 
L_forearm 0.000000 0.000000 0.000000 0.000000 0.000000 0.000000 10.000000 
L_front_hand 0.000000 0.000000 0.000000 0.000000 0.000000 0.000000 10.000000 
L_weapon_bone 0.000000 0.000000 0.000000 0.000000 0.000000 0.000000 10.000000 
L_front_hand01_01 0.000000 0.000000 0.000000 0.000000 0.000000 0.000000 10.000000 
L_front_hand02_01 0.000000 0.000000 0.000000 0.000000 0.000000 0.000000 10.000000 
L_front_hand03_01 0.000000 0.000000 0.000000 0.000000 0.000000 0.000000 10.000000 
L_front_hand01_02 0.000000 0.000000 0.000000 0.000000 0.000000 0.000000 10.000000 
L_front_hand02_02 0.000000 0.000000 0.000000 0.000000 0.000000 0.000000 10.000000 
L_front_hand03_02 0.000000 0.000000 0.000000 0.000000 0.000000 0.000000 10.000000 
R_forearm 0.000000 0.000000 0.000000 0.000000 0.000000 0.000000 10.000000 
R_front_hand 0.000000 0.000000 0.000000 0.000000 0.000000 0.000000 10.000000 
R_weapon_bone 0.000000 0.000000 0.000000 0.000000 0.000000 0.000000 10.000000 
R_front_hand01_01 0.000000 0.000000 0.000000 0.000000 0.000000 0.000000 10.000000 
R_front_hand02_01 0.000000 0.000000 0.000000 0.000000 0.000000 0.000000 10.000000 
R_front_hand03_01 0.000000 0.000000 0.000000 0.000000 0.000000 0.000000 10.000000 
R_front_hand01_02 0.000000 0.000000 0.000000 0.000000 0.000000 0.000000 10.000000 
R_front_hand02_02 0.000000 0.000000 0.000000 0.000000 0.000000 0.000000 10.000000 
R_front_hand03_02 0.000000 0.000000 0.000000 0.000000 0.000000 0.000000 10.000000 
null_rope01_connect 0.000000 0.000000 0.000000 0.000000 0.000000 0.000000 10.000000 
Rope1_Seg01 0.000000 0.000000 0.000000 0.000000 0.000000 0.000000 10.000000 
Rope1_Seg02 0.000000 0.000000 0.000000 0.000000 0.000000 0.000000 10.000000 
Rope1_Seg03 0.000000 0.000000 0.000000 0.000000 0.000000 0.000000 10.000000 
Rope1_Seg04 0.000000 0.000000 0.000000 0.000000 0.000000 0.000000 10.000000 
Rope1_Seg05 0.000000 0.000000 0.000000 0.000000 0.000000 0.000000 10.000000 
Rope1_Seg06 0.000000 0.000000 0.000000 0.000000 0.000000 0.000000 10.000000 
Rope1_Seg07 0.000000 0.000000 0.000000 0.000000 0.000000 0.000000 10.000000 
Rope1_Seg09 0.000000 0.000000 0.000000 0.000000 0.000000 0.000000 10.000000 
L_mid_hand01 0.000000 0.000000 0.000000 0.000000 0.000000 0.000000 10.000000 
L_mid_hand02 0.000000 0.000000 0.000000 0.000000 0.000000 0.000000 10.000000 
L_mid_hand03 0.000000 0.000000 0.000000 0.000000 0.000000 0.000000 10.000000 
null_rope02_connect 0.000000 0.000000 0.000000 0.000000 0.000000 0.000000 10.000000 
Rope2_Seg01 0.000000 0.000000 0.000000 0.000000 0.000000 0.000000 10.000000 
Rope2_Seg02 0.000000 0.000000 0.000000 0.000000 0.000000 0.000000 10.000000 
Rope2_Seg03 0.000000 0.000000 0.000000 0.000000 0.000000 0.000000 10.000000 
Rope2_Seg04 0.000000 0.000000 0.000000 0.000000 0.000000 0.000000 10.000000 
Rope2_Seg05 0.000000 0.000000 0.000000 0.000000 0.000000 0.000000 10.000000 
Rope2_Seg06 0.000000 0.000000 0.000000 0.000000 0.000000 0.000000 10.000000 
Rope2_Seg07 0.000000 0.000000 0.000000 0.000000 0.000000 0.000000 10.000000 
Rope2_Seg09 0.000000 0.000000 0.000000 0.000000 0.000000 0.000000 10.000000 
R_mid_hand01 0.000000 0.000000 0.000000 0.000000 0.000000 0.000000 10.000000 
R_mid_hand02 0.000000 0.000000 0.000000 0.000000 0.000000 0.000000 10.000000 
R_mid_hand03 0.000000 0.000000 0.000000 0.000000 0.000000 0.000000 10.000000 
spine02 0.000000 0.000000 0.000000 0.000000 0.000000 0.000000 10.000000 
spine03 0.000000 0.000000 0.000000 0.000000 0.000000 0.000000 10.000000 
pelvis 0.000000 0.000000 0.000000 0.000000 0.000000 0.000000 10.000000 
null_rope03_connect 0.000000 0.000000 0.000000 0.000000 0.000000 0.000000 10.000000 
null_rope04_connect 0.000000 0.000000 0.000000 0.000000 0.000000 0.000000 10.000000 
Rope3_Seg01 0.000000 0.000000 0.000000 0.000000 0.000000 0.000000 10.000000 
Rope3_Seg02 0.000000 0.000000 0.000000 0.000000 0.000000 0.000000 10.000000 
Rope3_Seg03 0.000000 0.000000 0.000000 0.000000 0.000000 0.000000 10.000000 
Rope3_Seg04 0.000000 0.000000 0.000000 0.000000 0.000000 0.000000 10.000000 
Rope3_Seg05 0.000000 0.000000 0.000000 0.000000 0.000000 0.000000 10.000000 
Rope3_Seg06 0.000000 0.000000 0.000000 0.000000 0.000000 0.000000 10.000000 
Rope3_Seg07 0.000000 0.000000 0.000000 0.000000 0.000000 0.000000 10.000000 
Rope3_Seg08 0.000000 0.000000 0.000000 0.000000 0.000000 0.000000 10.000000 
Rope3_Seg09 0.000000 0.000000 0.000000 0.000000 0.000000 0.000000 10.000000 
R_rear_hand01 0.000000 0.000000 0.000000 0.000000 0.000000 0.000000 10.000000 
R_rear_hand02 0.000000 0.000000 0.000000 0.000000 0.000000 0.000000 10.000000 
R_rear_hand03 0.000000 0.000000 0.000000 0.000000 0.000000 0.000000 10.000000 
Rope4_Seg01 0.000000 0.000000 0.000000 0.000000 0.000000 0.000000 10.000000 
Rope4_Seg02 0.000000 0.000000 0.000000 0.000000 0.000000 0.000000 10.000000 
Rope4_Seg03 0.000000 0.000000 0.000000 0.000000 0.000000 0.000000 10.000000 
Rope4_Seg04 0.000000 0.000000 0.000000 0.000000 0.000000 0.000000 10.000000 
Rope4_Seg05 0.000000 0.000000 0.000000 0.000000 0.000000 0.000000 10.000000 
Rope4_Seg06 0.000000 0.000000 0.000000 0.000000 0.000000 0.000000 10.000000 
Rope4_Seg07 0.000000 0.000000 0.000000 0.000000 0.000000 0.000000 10.000000 
Rope4_Seg08 0.000000 0.000000 0.000000 0.000000 0.000000 0.000000 10.000000 
Rope4_Seg09 0.000000 0.000000 0.000000 0.000000 0.000000 0.000000 10.000000 
L_rear_hand01 0.000000 0.000000 0.000000 0.000000 0.000000 0.000000 10.000000 
L_rear_hand02 0.000000 0.000000 0.000000 0.000000 0.000000 0.000000 10.000000 
L_rear_hand03 0.000000 0.000000 0.000000 0.000000 0.000000 0.000000 10.000000 
#Beginning of Data. Separated by tabs
#Fr	Tx	Ty	Tz	Rx	Ry	Rz	SF
[MASTER]
26 -2009.865479 -4343.505371 1152.608154 0.000000 -0.002347 -90.000000 4922.814453
27 -2248.355469 -4478.361816 950.361328 0.000000 -0.002347 -90.000000 5100.393555
[root]
26 -174.053207 11.098484 784.166748 -147.837448 -7.227663 -166.534576 803.327576
27 -129.012634 7.843946 896.244324 -130.315613 -11.156691 -166.170868 905.516296
[chest]
26 -84.512650 -34.090519 0.000000 -56.477940 -29.539076 -171.361603 91.129311
27 -84.512650 -34.090519 0.000000 -44.620541 -33.289162 -171.271729 91.129311
[L_mid_tent01]
26 27.299276 22.179243 -249.918716 -17.556149 22.246725 -23.671055 252.381729
27 27.299282 22.179245 -249.918716 -18.227079 18.666334 -40.396004 252.381729
[R_mid_tent01]
26 23.228794 24.509907 226.238495 164.135666 8.637046 73.348007 228.744751
27 23.228794 24.509907 226.238495 164.088364 3.142374 75.547844 228.744751
[spine01]
26 -0.361383 -0.195265 0.000000 0.001955 0.001299 22.798067 0.410763
27 -0.361383 -0.195265 0.000000 0.001955 0.001300 22.762753 0.410763
[Bip01_Neck]
26 165.484543 71.581718 0.000119 176.643677 -1.657967 43.431911 180.302734
27 165.484543 71.581718 0.000119 176.643677 -1.657967 43.431911 180.302734
[L_humerus]
26 -13.983130 -135.272980 -120.471481 173.801025 -4.653349 -92.693810 181.680161
27 -13.983130 -135.272980 -120.471481 174.070251 -5.559573 -92.125786 181.680161
[R_humerus]
26 -13.983309 -135.273102 125.287651 -176.994171 7.509116 -85.147377 184.909012
27 -13.983309 -135.273102 125.287651 -176.985825 8.339658 -85.103874 184.909012
[weapon_bone]
26 235.964890 -300.705902 0.000000 0.000000 -89.951546 -128.212341 382.234833
27 235.964890 -300.705902 0.000000 0.000000 -89.951546 -128.212341 382.234833
[Bip01_Head]
26 213.367981 185.928360 9.030272 18.223381 6.152122 -43.833607 283.155090
27 213.373932 185.911880 9.242918 18.223381 6.152122 -43.833607 283.155609
[eye_left_bone]
26 -24.626970 125.451866 -64.772606 0.000000 -90.000000 -99.840431 143.318359
27 -24.626970 125.451866 -64.772606 0.000000 -90.000000 -99.840431 143.318359
[eye_right_bone]
26 -24.626970 125.451866 64.327362 0.000000 -89.965736 80.156380 143.117676
27 -24.626970 125.451866 64.327362 0.000000 -89.965736 80.156380 143.117676
[L_forearm]
26 322.776093 0.000000 -0.000119 0.000427 -0.002308 -110.961784 322.776093
27 322.776093 0.000000 -0.000119 0.000426 -0.002308 -110.903763 322.776093
[L_front_hand]
26 241.149185 -0.042021 -3.300071 -178.667953 -1.835447 -27.422350 241.171753
27 241.149185 -0.042021 -3.300071 -178.667953 -1.835447 -27.422350 241.171753
[L_weapon_bone]
26 156.183838 0.000000 0.000000 0.000014 0.000007 0.000001 156.183838
27 156.183838 0.000000 0.000000 0.000014 0.000007 0.000001 156.183838
[L_front_hand01_01]
26 86.095154 20.947098 -0.655860 -0.366594 -0.477154 75.385574 88.609184
27 86.095154 20.947098 -0.655860 -0.366594 -0.477154 75.385574 88.609184
[L_front_hand02_01]
26 86.935165 -11.437475 24.513514 154.399796 -59.883820 -61.369572 91.046425
27 86.935165 -11.437475 24.513514 154.399811 -59.883846 -61.369606 91.046425
[L_front_hand03_01]
26 86.637497 -14.123976 -20.424902 -153.913849 58.118107 -62.702850 90.126129
27 86.637497 -14.123976 -20.424902 -153.913864 58.118134 -62.702885 90.126129
[L_front_hand01_02]
26 71.020905 -0.000179 0.000030 0.000334 -0.002323 -106.367332 71.020905
27 71.020905 -0.000179 0.000030 0.000334 -0.002323 -106.368027 71.020905
[L_front_hand02_02]
26 71.020927 -0.000119 0.000060 0.000334 -0.002323 -106.367332 71.020927
27 71.020927 -0.000119 0.000060 0.000334 -0.002323 -106.368027 71.020927
[L_front_hand03_02]
26 71.020905 -0.000060 0.000060 0.000334 -0.002323 -106.367332 71.020905
27 71.020905 -0.000060 0.000060 0.000334 -0.002323 -106.368027 71.020905
[R_forearm]
26 322.776428 -0.000060 0.000030 0.201201 0.067892 -109.616501 322.776428
27 322.776428 -0.000060 0.000030 0.201235 0.067791 -109.559021 322.776428
[R_front_hand]
26 238.847015 -0.006795 2.210259 -2.635298 -10.645461 -26.312506 238.857239
27 238.847015 -0.006795 2.210259 -2.635298 -10.645461 -26.312506 238.857239
[R_weapon_bone]
26 155.664093 0.002503 -0.000030 0.003487 0.001180 -90.988930 155.664078
27 155.664093 0.002503 -0.000030 0.003487 0.001180 -90.988930 155.664078
[R_front_hand01_01]
26 87.624611 14.231146 22.918642 -154.633499 -59.950619 61.746044 91.683487
27 87.624611 14.231146 22.918642 -154.633484 -59.950607 61.746033 91.683487
[R_front_hand02_01]
26 89.356956 14.367283 -19.491137 154.602661 58.302849 63.744389 92.579636
27 89.356956 14.367283 -19.491137 154.602661 58.302849 63.744389 92.579636
[R_front_hand03_01]
26 87.286232 -22.307278 -0.143439 0.162155 -0.423168 -75.767921 90.091743
27 87.286232 -22.307278 -0.143439 0.162155 -0.423168 -75.767906 90.091743
[R_front_hand01_02]
26 71.020905 0.000060 0.000119 0.002323 -0.000334 106.381714 71.020905
27 71.020905 0.000060 0.000119 0.002323 -0.000334 106.381714 71.020905
[R_front_hand02_02]
26 71.020844 -0.000030 -0.000119 0.002323 -0.000334 106.381714 71.020836
27 71.020844 -0.000030 -0.000119 0.002323 -0.000334 106.381714 71.020836
[R_front_hand03_02]
26 71.020905 0.000000 0.000030 0.002323 -0.000334 106.381714 71.020905
27 71.020905 0.000000 0.000030 0.002323 -0.000334 106.381714 71.020905
[null_rope01_connect]
26 328.732483 0.000000 -0.000238 149.036575 28.494183 109.305679 328.732483
27 328.732483 0.000000 -0.000238 144.368988 50.403534 116.738808 328.732483
[Rope1_Seg01]
26 0.000000 0.000000 0.000000 92.899666 -26.938837 14.376377 0.000000
27 0.000000 0.000000 0.000000 81.179802 -62.354149 23.282539 0.000000
[Rope1_Seg02]
26 139.999863 -0.000179 0.000000 -4.592001 20.315424 32.716763 139.999863
27 139.999863 -0.000179 0.000000 9.279395 7.876949 36.261795 139.999863
[Rope1_Seg03]
26 139.999924 0.000060 -0.000060 2.171966 7.175489 32.329487 139.999924
27 139.999924 0.000060 -0.000060 25.423361 12.032229 38.163589 139.999924
[Rope1_Seg04]
26 139.999924 -0.000060 -0.000119 -2.997635 35.053192 -4.810914 139.999924
27 139.999924 -0.000060 -0.000119 15.248193 32.941437 7.831371 139.999924
[Rope1_Seg05]
26 139.999832 0.000119 -0.000060 -14.158822 31.225697 -6.885413 139.999832
27 139.999832 0.000119 -0.000060 2.010620 21.123013 0.034497 139.999832
[Rope1_Seg06]
26 139.999954 0.000119 -0.000060 -8.933830 11.050579 1.318728 139.999954
27 139.999954 0.000119 -0.000060 -0.331696 8.883263 0.050325 139.999954
[Rope1_Seg07]
26 139.999985 0.000060 0.000000 -5.547177 5.446455 1.547001 139.999985
27 139.999985 0.000060 0.000000 -0.190670 2.257113 0.027600 139.999985
[Rope1_Seg09]
26 121.602913 0.000119 -0.000089 -89.793175 -1.359789 0.847147 121.602913
27 121.602913 0.000119 -0.000089 -89.793175 -1.359789 0.847147 121.602913
[L_mid_hand01]
26 103.859421 1.038730 8.195221 130.544388 -67.584541 -38.866955 104.187431
27 103.859421 1.038730 8.195221 130.544373 -67.584534 -38.866943 104.187431
[L_mid_hand02]
26 105.572853 -4.139662 -10.864139 -168.923172 43.409309 -73.498894 106.211075
27 105.572853 -4.139662 -10.864139 -168.923172 43.409309 -73.498886 106.211075
[L_mid_hand03]
26 104.641464 17.579376 -3.913581 -6.012628 17.808174 74.893669 106.179977
27 104.641464 17.579376 -3.913581 -6.012627 17.808174 74.893669 106.179977
[null_rope02_connect]
26 328.732849 0.000179 -0.000119 10.554975 -16.856373 -35.307743 328.732849
27 328.732849 0.000179 -0.000119 19.389414 -37.561474 -45.344204 328.732849
[Rope2_Seg01]
26 -0.000057 -0.000095 0.000000 9.684158 85.659996 -57.452053 0.000111
27 -0.000056 -0.000092 0.000000 3.309515 75.826668 -64.625519 0.000108
[Rope2_Seg02]
26 139.999741 -0.000060 -0.000119 -1.882298 2.819717 7.654984 139.999756
27 139.999741 -0.000060 -0.000119 -0.186082 1.744835 1.314496 139.999756
[Rope2_Seg03]
26 140.000107 0.000030 0.000000 -3.003697 4.687121 15.864438 140.000107
27 140.000107 0.000030 0.000000 -0.499715 2.712077 4.121434 140.000107
[Rope2_Seg04]
26 139.999802 0.000000 -0.000060 -2.045312 2.655777 33.812485 139.999802
27 139.999802 0.000000 -0.000060 -33.965263 59.852730 -39.211494 139.999802
[Rope2_Seg05]
26 139.999985 -0.000060 0.000119 3.150102 24.463203 27.897488 139.999985
27 139.999985 -0.000060 0.000119 167.700806 61.079895 -35.167881 139.999985
[Rope2_Seg06]
26 139.999893 -0.000030 -0.000119 -4.918402 25.580442 21.176186 139.999893
27 139.999893 -0.000030 -0.000119 -0.049620 -0.685743 0.308437 139.999893
[Rope2_Seg07]
26 139.999893 0.000060 -0.000060 -5.431389 7.547870 10.536114 139.999893
27 139.999893 0.000060 -0.000060 -0.052736 0.001631 0.001607 139.999893
[Rope2_Seg09]
26 121.338966 0.000089 -0.000060 33.793236 -1.359788 -0.847141 121.338966
27 121.338966 0.000089 -0.000060 33.793236 -1.359788 -0.847141 121.338966
[R_mid_hand01]
26 104.680779 11.144459 -10.335981 -16.857141 45.048359 69.553452 105.778534
27 104.680779 11.144459 -10.335981 -16.212063 45.237247 70.462852 105.778534
[R_mid_hand02]
26 104.070427 2.443552 8.231699 50.118149 -67.241341 38.150028 104.424065
27 104.070427 2.443552 8.231699 49.067368 -67.749771 39.286453 104.424065
[R_mid_hand03]
26 106.028137 -11.221827 -5.996406 -176.912491 15.518668 -75.892761 106.788818
27 106.028137 -11.221827 -5.996406 -177.101105 15.551026 -76.585571 106.788818
[spine02]
26 129.756927 0.001550 0.000119 0.515563 -4.026834 -15.144273 129.756927
27 129.756927 0.001550 0.000119 0.509301 -4.027644 -15.059182 129.756927
[spine03]
26 78.614029 0.081740 -4.898998 1.989527 3.785633 17.866716 78.766563
27 78.614029 0.081739 -4.898998 1.985570 3.788049 17.801516 78.766563
[pelvis]
26 169.435242 0.051022 0.000000 -36.264267 -0.715880 -12.325883 169.435257
27 169.435242 0.051022 0.000000 -46.816162 -0.739205 -11.994899 169.435257
[null_rope03_connect]
26 -1.257226 -2.466202 137.391083 -179.675140 -2.148569 92.700150 137.418976
27 -1.257226 -2.466202 137.391083 -179.833023 5.031974 95.683586 137.418976
[null_rope04_connect]
26 -1.259640 -2.480268 -137.844437 -179.675140 -2.148569 92.700150 137.872513
27 -1.259640 -2.480268 -137.844437 -179.833023 5.031974 95.683586 137.872513
[Rope3_Seg01]
26 0.000000 0.000000 0.000000 -113.148315 -50.242943 71.893852 0.000000
27 0.000000 0.000000 0.000000 -108.027863 -53.938339 66.074135 0.000000
[Rope3_Seg02]
26 139.999924 -0.000119 0.000060 -0.506805 -25.836676 3.167850 139.999924
27 139.999924 -0.000119 0.000060 0.668123 -26.167585 -0.595293 139.999924
[Rope3_Seg03]
26 139.999924 -0.000119 0.000119 3.316798 -27.472803 7.556245 139.999924
27 139.999924 -0.000119 0.000119 5.457880 -26.817043 3.862407 139.999924
[Rope3_Seg04]
26 139.999924 0.000119 0.000000 4.080263 -15.425929 4.074492 139.999924
27 139.999924 0.000119 0.000000 5.099455 -14.607463 5.259642 139.999924
[Rope3_Seg05]
26 139.999924 -0.000238 0.000060 5.586739 -14.930109 -7.396417 139.999924
27 139.999924 -0.000238 0.000060 4.000757 -11.294049 -7.390201 139.999924
[Rope3_Seg06]
26 139.999893 -0.000119 -0.000060 10.819467 -16.647522 -9.307886 139.999893
27 139.999893 -0.000119 -0.000060 6.745802 -14.445186 -16.342051 139.999893
[Rope3_Seg07]
26 139.999771 0.000060 -0.000119 11.996230 -10.858219 -2.131677 139.999771
27 139.999771 0.000060 -0.000119 11.539013 -10.622375 -8.117937 139.999771
[Rope3_Seg08]
26 139.999985 -0.000060 0.000000 9.523266 -6.476059 0.092917 139.999985
27 139.999985 -0.000060 0.000000 13.146385 -6.422028 -2.758578 139.999985
[Rope3_Seg09]
26 90.185997 -0.000179 -0.000060 89.793228 -1.359877 -0.847183 90.185997
27 90.185997 -0.000179 -0.000060 89.793228 -1.359877 -0.847183 90.185997
[R_rear_hand01]
26 103.366196 -6.073594 -10.757982 -177.431534 24.540588 -73.234833 104.101845
27 103.366196 -6.073594 -10.757982 -177.714203 24.565960 -73.910950 104.101845
[R_rear_hand02]
26 100.509819 12.039542 -7.992327 -13.326707 36.728539 71.413704 101.543350
27 100.509819 12.039542 -7.992327 -12.874829 36.868488 72.167213 101.543350
[R_rear_hand03]
26 101.539970 5.215704 5.435467 72.062210 -71.230423 20.902836 101.819031
27 101.539970 5.215704 5.435467 71.484581 -71.816628 21.513813 101.819031
[Rope4_Seg01]
26 0.000010 0.000019 -0.000076 62.003555 -34.526653 58.456272 0.000079
27 0.000010 0.000018 -0.000073 60.730190 -24.406000 49.406857 0.000076
[Rope4_Seg02]
26 139.999985 0.000060 0.000119 4.405528 1.928254 13.062920 139.999985
27 139.999985 0.000060 0.000119 9.802324 1.416773 23.244284 139.999985
[Rope4_Seg03]
26 139.999924 0.000000 -0.000238 3.212708 5.130989 16.095079 139.999924
27 139.999924 0.000000 -0.000238 6.270308 7.509999 36.565670 139.999924
[Rope4_Seg04]
26 139.999985 0.000000 0.000119 0.595480 1.298996 15.312538 139.999985
27 139.999985 0.000000 0.000119 -2.038982 6.416351 19.447409 139.999985
[Rope4_Seg05]
26 139.999802 -0.000060 -0.000119 -0.354561 -2.584301 6.340090 139.999802
27 139.999802 -0.000060 -0.000119 -3.133771 4.377590 11.238644 139.999802
[Rope4_Seg06]
26 139.999924 0.000000 0.000060 -0.106924 -0.598532 3.727079 139.999924
27 139.999924 0.000000 0.000060 -4.693521 2.832547 10.461837 139.999924
[Rope4_Seg07]
26 139.999802 0.000000 0.000000 -0.036493 -0.393291 2.460021 139.999802
27 139.999802 0.000000 0.000000 -3.216299 1.027597 5.660234 139.999802
[Rope4_Seg08]
26 139.999924 0.000000 0.000119 -1.553992 -0.217590 1.340100 139.999924
27 139.999924 0.000000 0.000119 -2.133940 0.130093 1.052899 139.999924
[Rope4_Seg09]
26 90.185791 0.000060 0.000060 -135.617828 2.228885 0.850567 90.185791
27 90.185791 0.000060 0.000060 -135.617828 2.228885 0.850567 90.185791
[L_rear_hand01]
26 101.696655 -8.392275 -7.654577 -12.874827 -36.868488 107.832764 102.329041
27 101.696655 -8.392275 -7.654577 -12.874829 -36.868488 107.832764 102.329041
[L_rear_hand02]
26 102.726799 -1.568258 5.773216 71.484589 71.816643 158.486160 102.900848
27 102.726799 -1.568258 5.773216 71.484581 71.816628 158.486160 102.900848
[L_rear_hand03]
26 104.552910 9.721220 -10.420293 -177.714203 -24.565960 -106.089035 105.519653
27 104.552910 9.721220 -10.420293 -177.714203 -24.565960 -106.089035 105.519653
